<mxfile host="Electron" modified="2023-04-29T17:01:04.232Z" agent="Mozilla/5.0 (Windows NT 10.0; Win64; x64) AppleWebKit/537.36 (KHTML, like Gecko) draw.io/21.2.1 Chrome/112.0.5615.87 Electron/24.1.2 Safari/537.36" etag="Ln0OdVNYpaQckx6UUpAN" version="21.2.1" type="device">
  <diagram id="2ukmmuxa0JyIqV4wIoMK" name="Блок-схема">
    <mxGraphModel dx="1418" dy="828" grid="1" gridSize="10" guides="1" tooltips="1" connect="1" arrows="1" fold="1" page="1" pageScale="1" pageWidth="827" pageHeight="1169" math="0" shadow="0">
      <root>
        <mxCell id="0" />
        <mxCell id="1" parent="0" />
        <mxCell id="u10vyCn_wJuovTlye2jO-3" value="Нарисовать блок-схему алгоритма" style="text;whiteSpace=wrap;html=1;" parent="1" vertex="1">
          <mxGeometry x="20" y="20" width="230" height="40" as="geometry" />
        </mxCell>
        <mxCell id="u10vyCn_wJuovTlye2jO-14" style="edgeStyle=orthogonalEdgeStyle;rounded=0;orthogonalLoop=1;jettySize=auto;html=1;exitX=0.5;exitY=1;exitDx=0;exitDy=0;entryX=0.5;entryY=0;entryDx=0;entryDy=0;" parent="1" source="u10vyCn_wJuovTlye2jO-4" target="u10vyCn_wJuovTlye2jO-5" edge="1">
          <mxGeometry relative="1" as="geometry" />
        </mxCell>
        <mxCell id="u10vyCn_wJuovTlye2jO-4" value="Start" style="rounded=1;whiteSpace=wrap;html=1;" parent="1" vertex="1">
          <mxGeometry x="320" y="60" width="120" height="30" as="geometry" />
        </mxCell>
        <mxCell id="u10vyCn_wJuovTlye2jO-15" style="edgeStyle=orthogonalEdgeStyle;rounded=0;orthogonalLoop=1;jettySize=auto;html=1;exitX=0.5;exitY=1;exitDx=0;exitDy=0;entryX=0.5;entryY=0;entryDx=0;entryDy=0;" parent="1" source="u10vyCn_wJuovTlye2jO-5" target="u10vyCn_wJuovTlye2jO-6" edge="1">
          <mxGeometry relative="1" as="geometry" />
        </mxCell>
        <mxCell id="u10vyCn_wJuovTlye2jO-5" value="Array = [ ]" style="shape=parallelogram;perimeter=parallelogramPerimeter;whiteSpace=wrap;html=1;fixedSize=1;" parent="1" vertex="1">
          <mxGeometry x="310" y="150" width="140" height="60" as="geometry" />
        </mxCell>
        <mxCell id="u10vyCn_wJuovTlye2jO-16" style="edgeStyle=orthogonalEdgeStyle;rounded=0;orthogonalLoop=1;jettySize=auto;html=1;exitX=0.5;exitY=1;exitDx=0;exitDy=0;entryX=0.5;entryY=0;entryDx=0;entryDy=0;" parent="1" source="u10vyCn_wJuovTlye2jO-6" target="u10vyCn_wJuovTlye2jO-7" edge="1">
          <mxGeometry relative="1" as="geometry" />
        </mxCell>
        <mxCell id="u10vyCn_wJuovTlye2jO-6" value="count = 0&lt;br&gt;i = 0&lt;br&gt;Array2 [ ]= Array [ ]" style="rounded=0;whiteSpace=wrap;html=1;" parent="1" vertex="1">
          <mxGeometry x="315" y="260" width="130" height="50" as="geometry" />
        </mxCell>
        <mxCell id="u10vyCn_wJuovTlye2jO-17" value="Yes" style="edgeStyle=orthogonalEdgeStyle;rounded=0;orthogonalLoop=1;jettySize=auto;html=1;exitX=0.5;exitY=1;exitDx=0;exitDy=0;entryX=0.5;entryY=0;entryDx=0;entryDy=0;" parent="1" source="u10vyCn_wJuovTlye2jO-7" target="u10vyCn_wJuovTlye2jO-8" edge="1">
          <mxGeometry relative="1" as="geometry" />
        </mxCell>
        <mxCell id="u10vyCn_wJuovTlye2jO-23" style="edgeStyle=orthogonalEdgeStyle;rounded=0;orthogonalLoop=1;jettySize=auto;html=1;exitX=1;exitY=0.5;exitDx=0;exitDy=0;entryX=0;entryY=0.5;entryDx=0;entryDy=0;" parent="1" source="u10vyCn_wJuovTlye2jO-7" target="u10vyCn_wJuovTlye2jO-13" edge="1">
          <mxGeometry relative="1" as="geometry" />
        </mxCell>
        <mxCell id="u10vyCn_wJuovTlye2jO-24" value="No" style="edgeLabel;html=1;align=center;verticalAlign=middle;resizable=0;points=[];" parent="u10vyCn_wJuovTlye2jO-23" vertex="1" connectable="0">
          <mxGeometry x="-0.2571" relative="1" as="geometry">
            <mxPoint as="offset" />
          </mxGeometry>
        </mxCell>
        <mxCell id="u10vyCn_wJuovTlye2jO-7" value="count &amp;lt; Array.length()" style="rhombus;whiteSpace=wrap;html=1;" parent="1" vertex="1">
          <mxGeometry x="280" y="360" width="200" height="80" as="geometry" />
        </mxCell>
        <mxCell id="u10vyCn_wJuovTlye2jO-18" value="Yes" style="edgeStyle=orthogonalEdgeStyle;rounded=0;orthogonalLoop=1;jettySize=auto;html=1;exitX=0.5;exitY=1;exitDx=0;exitDy=0;entryX=0.5;entryY=0;entryDx=0;entryDy=0;" parent="1" source="u10vyCn_wJuovTlye2jO-8" target="u10vyCn_wJuovTlye2jO-9" edge="1">
          <mxGeometry relative="1" as="geometry" />
        </mxCell>
        <mxCell id="u10vyCn_wJuovTlye2jO-19" style="edgeStyle=orthogonalEdgeStyle;rounded=0;orthogonalLoop=1;jettySize=auto;html=1;exitX=1;exitY=0.5;exitDx=0;exitDy=0;entryX=0.5;entryY=1;entryDx=0;entryDy=0;" parent="1" source="u10vyCn_wJuovTlye2jO-8" target="u10vyCn_wJuovTlye2jO-10" edge="1">
          <mxGeometry relative="1" as="geometry">
            <Array as="points">
              <mxPoint x="500" y="530" />
              <mxPoint x="500" y="720" />
              <mxPoint x="140" y="720" />
            </Array>
          </mxGeometry>
        </mxCell>
        <mxCell id="u10vyCn_wJuovTlye2jO-25" value="No" style="edgeLabel;html=1;align=center;verticalAlign=middle;resizable=0;points=[];" parent="u10vyCn_wJuovTlye2jO-19" vertex="1" connectable="0">
          <mxGeometry x="-0.7811" y="-2" relative="1" as="geometry">
            <mxPoint as="offset" />
          </mxGeometry>
        </mxCell>
        <mxCell id="u10vyCn_wJuovTlye2jO-8" value="Array[i].length() &amp;lt;= 3" style="rhombus;whiteSpace=wrap;html=1;" parent="1" vertex="1">
          <mxGeometry x="280" y="490" width="200" height="80" as="geometry" />
        </mxCell>
        <mxCell id="u10vyCn_wJuovTlye2jO-21" style="edgeStyle=orthogonalEdgeStyle;rounded=0;orthogonalLoop=1;jettySize=auto;html=1;exitX=0;exitY=0.5;exitDx=0;exitDy=0;entryX=0.572;entryY=1.017;entryDx=0;entryDy=0;entryPerimeter=0;" parent="1" source="u10vyCn_wJuovTlye2jO-9" target="u10vyCn_wJuovTlye2jO-10" edge="1">
          <mxGeometry relative="1" as="geometry">
            <mxPoint x="150" y="580" as="targetPoint" />
          </mxGeometry>
        </mxCell>
        <mxCell id="u10vyCn_wJuovTlye2jO-9" value="Array2[i] = Array[i]" style="rounded=0;whiteSpace=wrap;html=1;" parent="1" vertex="1">
          <mxGeometry x="290" y="620" width="180" height="60" as="geometry" />
        </mxCell>
        <mxCell id="u10vyCn_wJuovTlye2jO-22" style="edgeStyle=orthogonalEdgeStyle;rounded=0;orthogonalLoop=1;jettySize=auto;html=1;exitX=0.5;exitY=0;exitDx=0;exitDy=0;entryX=0;entryY=0.5;entryDx=0;entryDy=0;" parent="1" source="u10vyCn_wJuovTlye2jO-10" target="u10vyCn_wJuovTlye2jO-7" edge="1">
          <mxGeometry relative="1" as="geometry" />
        </mxCell>
        <mxCell id="u10vyCn_wJuovTlye2jO-10" value="i ++&lt;br&gt;count ++" style="rounded=0;whiteSpace=wrap;html=1;" parent="1" vertex="1">
          <mxGeometry x="50" y="490" width="180" height="60" as="geometry" />
        </mxCell>
        <mxCell id="u10vyCn_wJuovTlye2jO-11" value="End" style="rounded=1;whiteSpace=wrap;html=1;" parent="1" vertex="1">
          <mxGeometry x="625" y="490" width="90" height="60" as="geometry" />
        </mxCell>
        <mxCell id="u10vyCn_wJuovTlye2jO-12" style="edgeStyle=orthogonalEdgeStyle;rounded=0;orthogonalLoop=1;jettySize=auto;html=1;exitX=0.5;exitY=1;exitDx=0;exitDy=0;" parent="1" source="u10vyCn_wJuovTlye2jO-13" target="u10vyCn_wJuovTlye2jO-11" edge="1">
          <mxGeometry relative="1" as="geometry" />
        </mxCell>
        <mxCell id="u10vyCn_wJuovTlye2jO-13" value="average" style="shape=parallelogram;perimeter=parallelogramPerimeter;whiteSpace=wrap;html=1;fixedSize=1;" parent="1" vertex="1">
          <mxGeometry x="610" y="370" width="120" height="60" as="geometry" />
        </mxCell>
      </root>
    </mxGraphModel>
  </diagram>
</mxfile>
